<svg xmlns="http://www.w3.org/2000/svg" viewBox="0 0 456 552" width="456" height="552">
  <path d="M173 380 L173 389 L172 390 L172 395 L171 396 L171 400 L170 401 L170 403 L169 404 L169 406 L168 407 L168 408 L167 409 L167 410 L166 411 L166 412 L164 414 L164 415 L163 416 L163 417 L148 432 L147 432 L144 435 L143 435 L141 437 L140 437 L134 443 L133 443 L128 448 L128 449 L125 452 L125 453 L124 454 L124 455 L122 457 L122 459 L121 460 L121 461 L120 462 L120 464 L119 465 L119 469 L118 470 L118 482 L119 483 L119 485 L120 486 L120 488 L121 489 L121 491 L122 492 L122 493 L123 494 L123 495 L124 496 L124 497 L125 498 L125 499 L126 499 L126 485 L127 484 L127 483 L128 482 L128 480 L129 479 L129 478 L131 476 L131 475 L134 472 L134 471 L141 464 L142 464 L145 461 L146 461 L147 460 L148 460 L150 458 L151 458 L153 456 L154 456 L155 455 L156 455 L157 454 L158 454 L160 452 L161 452 L163 450 L164 450 L168 446 L169 446 L173 442 L173 441 L176 438 L176 437 L178 435 L178 434 L179 433 L179 432 L180 431 L180 430 L181 429 L181 427 L182 426 L182 422 L183 421 L183 414 L184 413 L183 412 L183 404 L182 403 L182 399 L181 398 L181 395 L180 394 L180 392 L179 391 L179 390 L178 389 L178 387 L177 386 L177 385 L176 384 L176 383 L175 382 L175 381 L174 380 Z" fill="currentColor" />
  <path d="M316 364 L316 366 L315 367 L315 368 L314 369 L314 373 L313 374 L313 380 L312 381 L312 391 L313 392 L313 398 L314 399 L314 401 L315 402 L315 404 L316 405 L316 407 L317 408 L317 409 L318 410 L318 412 L319 413 L319 414 L321 416 L321 417 L322 418 L322 419 L324 421 L324 422 L327 425 L327 426 L351 450 L351 451 L354 454 L354 455 L355 456 L355 457 L356 458 L356 459 L357 460 L357 461 L358 462 L358 464 L359 465 L359 469 L360 470 L360 478 L359 479 L359 485 L358 486 L358 488 L357 489 L357 490 L356 491 L356 492 L355 493 L355 494 L354 495 L354 496 L353 497 L354 497 L355 496 L356 496 L370 482 L370 481 L372 479 L372 478 L374 476 L374 475 L375 474 L375 473 L376 472 L376 470 L377 469 L377 467 L378 466 L378 462 L379 461 L379 445 L378 444 L378 441 L377 440 L377 438 L376 437 L376 435 L375 434 L375 433 L374 432 L374 431 L372 429 L372 428 L371 427 L371 426 L362 417 L361 417 L357 413 L356 413 L354 411 L353 411 L351 409 L350 409 L348 407 L347 407 L345 405 L344 405 L340 401 L339 401 L333 395 L332 395 L329 392 L329 391 L325 387 L325 386 L323 384 L323 383 L322 382 L322 381 L321 380 L321 379 L320 378 L320 377 L319 376 L319 375 L318 374 L318 372 L317 371 L317 368 L316 367 Z" fill="currentColor" />
  <path d="M155 360 L155 364 L154 365 L154 368 L153 369 L153 373 L152 374 L152 375 L151 376 L151 378 L150 379 L150 380 L149 381 L149 382 L148 383 L148 384 L147 385 L147 386 L145 388 L145 389 L142 392 L142 393 L134 401 L134 402 L126 410 L126 411 L123 414 L123 415 L122 416 L122 417 L121 418 L121 419 L119 421 L119 422 L118 423 L118 425 L117 426 L117 427 L116 428 L116 430 L115 431 L115 433 L114 434 L114 438 L113 439 L113 445 L112 446 L112 447 L113 447 L114 446 L114 445 L117 442 L117 441 L126 432 L127 432 L130 429 L131 429 L134 426 L135 426 L139 422 L140 422 L144 418 L145 418 L147 416 L147 415 L151 411 L151 410 L152 409 L152 408 L154 406 L154 405 L155 404 L155 402 L156 401 L156 400 L157 399 L157 396 L158 395 L158 391 L159 390 L159 373 L158 372 L158 368 L157 367 L157 364 L156 363 L156 360 Z" fill="currentColor" />
  <path d="M285 327 L277 335 L276 335 L272 339 L271 339 L268 342 L267 342 L264 345 L263 345 L260 348 L259 348 L257 350 L256 350 L254 352 L253 352 L251 354 L250 354 L248 356 L247 356 L245 358 L244 358 L243 359 L242 359 L240 361 L239 361 L238 362 L237 362 L236 363 L235 363 L234 364 L233 364 L232 365 L231 365 L230 366 L228 366 L227 367 L225 367 L224 368 L222 368 L221 369 L217 369 L216 370 L213 370 L212 371 L194 371 L193 370 L192 371 L192 372 L193 373 L193 379 L194 380 L194 385 L195 386 L195 392 L196 393 L196 402 L197 403 L197 417 L196 418 L196 425 L195 426 L195 429 L194 430 L194 432 L193 433 L193 435 L192 436 L192 437 L191 438 L191 440 L190 441 L190 442 L192 444 L194 444 L195 445 L197 445 L198 446 L200 446 L201 447 L204 447 L205 448 L213 448 L214 449 L216 449 L217 448 L227 448 L228 447 L233 447 L234 446 L238 446 L239 445 L241 445 L242 444 L245 444 L246 443 L248 443 L249 442 L251 442 L252 441 L254 441 L255 440 L257 440 L258 439 L259 439 L260 438 L261 438 L262 437 L263 437 L264 436 L265 436 L266 435 L267 435 L268 434 L269 434 L270 433 L271 433 L273 431 L274 431 L275 430 L276 430 L278 428 L279 428 L282 425 L282 423 L280 421 L280 420 L278 418 L278 417 L277 416 L277 415 L276 414 L276 413 L275 412 L275 410 L274 409 L274 408 L273 407 L273 405 L272 404 L272 402 L271 401 L271 398 L270 397 L270 392 L269 391 L269 374 L270 373 L270 368 L271 367 L271 364 L272 363 L272 360 L273 359 L273 357 L274 356 L274 354 L275 353 L275 351 L276 350 L276 349 L277 348 L277 346 L278 345 L278 344 L279 343 L279 341 L280 340 L280 339 L281 338 L281 337 L282 336 L282 335 L283 334 L283 332 L284 331 L284 330 L285 329 L285 328 L286 327 Z" fill="currentColor" />
  <path d="M136 317 L136 327 L135 328 L135 333 L134 334 L134 336 L133 337 L133 339 L132 340 L132 342 L131 343 L131 344 L130 345 L130 346 L129 347 L129 348 L128 349 L128 350 L127 351 L127 352 L125 354 L125 355 L124 356 L124 357 L122 359 L122 360 L116 366 L116 367 L115 368 L114 368 L96 386 L96 387 L93 390 L93 391 L91 393 L91 394 L89 396 L89 397 L88 398 L88 400 L87 401 L87 402 L86 403 L86 405 L85 406 L85 409 L84 410 L84 413 L83 414 L83 420 L82 421 L82 427 L83 428 L83 434 L84 435 L84 438 L85 439 L85 442 L86 443 L86 445 L87 446 L87 447 L88 448 L88 450 L89 451 L89 452 L90 453 L90 454 L91 455 L91 456 L93 458 L93 459 L95 461 L95 462 L97 464 L97 465 L99 467 L100 467 L99 466 L99 464 L98 463 L98 462 L97 461 L97 458 L96 457 L96 436 L97 435 L97 431 L98 430 L98 428 L99 427 L99 426 L100 425 L100 423 L101 422 L101 421 L102 420 L102 419 L103 418 L103 417 L105 415 L105 414 L109 410 L109 409 L130 388 L130 387 L133 384 L133 383 L135 381 L135 380 L136 379 L136 378 L137 377 L137 376 L138 375 L138 374 L139 373 L139 372 L140 371 L140 369 L141 368 L141 366 L142 365 L142 361 L143 360 L143 351 L144 350 L144 349 L143 348 L143 337 L142 336 L142 332 L141 331 L141 329 L140 328 L140 326 L139 325 L139 323 L138 322 L138 320 L137 319 L137 318 Z" fill="currentColor" />
  <path d="M338 308 L338 309 L337 310 L337 311 L336 312 L336 315 L335 316 L335 318 L334 319 L334 321 L333 322 L333 324 L332 325 L332 327 L331 328 L331 331 L330 332 L330 335 L329 336 L329 341 L328 342 L328 350 L329 351 L329 359 L330 360 L330 363 L331 364 L331 366 L332 367 L332 369 L333 370 L333 371 L334 372 L334 373 L335 374 L335 375 L337 377 L337 378 L340 381 L340 382 L348 390 L349 390 L352 393 L353 393 L355 395 L356 395 L358 397 L359 397 L361 399 L362 399 L363 400 L364 400 L366 402 L367 402 L369 404 L370 404 L372 406 L373 406 L376 409 L377 409 L384 416 L384 417 L387 420 L387 421 L388 422 L388 423 L389 424 L389 425 L390 426 L390 428 L391 429 L391 431 L392 432 L392 436 L393 437 L393 447 L392 448 L393 449 L393 446 L394 445 L394 444 L395 443 L395 441 L396 440 L396 439 L397 438 L397 434 L398 433 L398 416 L397 415 L397 412 L396 411 L396 409 L395 408 L395 406 L394 405 L394 404 L393 403 L393 402 L392 401 L392 400 L390 398 L390 397 L382 389 L381 389 L376 384 L375 384 L372 381 L371 381 L369 379 L368 379 L364 375 L363 375 L356 368 L356 367 L352 363 L352 362 L350 360 L350 359 L348 357 L348 356 L347 355 L347 354 L346 353 L346 352 L345 351 L345 349 L344 348 L344 347 L343 346 L343 344 L342 343 L342 340 L341 339 L341 336 L340 335 L340 331 L339 330 L339 323 L338 322 Z" fill="currentColor" />
  <path d="M350 292 L350 307 L349 308 L349 310 L350 311 L350 323 L351 324 L351 328 L352 329 L352 332 L353 333 L353 336 L354 337 L354 339 L355 340 L355 342 L356 343 L356 344 L357 345 L357 347 L358 348 L358 349 L359 350 L359 351 L361 353 L361 354 L363 356 L363 357 L372 366 L373 366 L376 369 L377 369 L379 371 L380 371 L382 373 L383 373 L385 375 L386 375 L387 376 L388 376 L389 377 L390 377 L391 378 L392 378 L393 379 L394 379 L382 367 L382 366 L379 363 L379 362 L378 361 L378 360 L377 359 L377 358 L376 357 L376 356 L375 355 L375 354 L374 353 L374 350 L373 349 L373 346 L372 345 L372 337 L371 336 L371 330 L370 329 L370 325 L369 324 L369 321 L368 320 L368 318 L367 317 L367 316 L366 315 L366 314 L365 313 L365 312 L363 310 L363 309 L361 307 L361 306 L359 304 L359 303 L356 300 L356 299 L354 297 L354 296 L352 294 L352 293 L351 292 Z" fill="currentColor" />
  <path d="M323 288 L323 291 L322 292 L322 295 L321 296 L321 298 L320 299 L320 300 L319 301 L319 303 L317 305 L317 307 L315 309 L315 310 L314 311 L314 312 L313 313 L313 314 L311 316 L311 317 L309 319 L309 320 L307 322 L307 323 L304 326 L304 327 L302 329 L302 330 L301 331 L301 332 L299 334 L299 335 L297 337 L297 338 L296 339 L296 340 L295 341 L295 342 L293 344 L293 345 L292 346 L292 347 L291 348 L291 349 L290 350 L290 351 L289 352 L289 354 L288 355 L288 356 L287 357 L287 358 L286 359 L286 361 L285 362 L285 365 L284 366 L284 370 L283 371 L283 376 L282 377 L282 386 L283 387 L283 392 L284 393 L284 396 L285 397 L285 400 L286 401 L286 403 L287 404 L287 405 L288 406 L288 407 L289 408 L289 409 L291 411 L291 412 L292 413 L292 414 L294 416 L294 417 L307 430 L308 430 L310 432 L311 432 L313 434 L314 434 L315 435 L316 435 L317 436 L316 435 L316 434 L311 429 L311 428 L309 426 L309 425 L307 423 L307 422 L306 421 L306 420 L305 419 L305 418 L304 417 L304 416 L303 415 L303 414 L302 413 L302 411 L301 410 L301 408 L300 407 L300 404 L299 403 L299 399 L298 398 L298 378 L299 377 L299 373 L300 372 L300 368 L301 367 L301 363 L302 362 L302 360 L303 359 L303 357 L304 356 L304 354 L305 353 L305 351 L306 350 L306 349 L307 348 L307 347 L308 346 L308 345 L309 344 L309 342 L310 341 L310 340 L311 339 L311 338 L312 337 L312 336 L313 335 L313 334 L314 333 L314 332 L315 331 L315 330 L316 329 L316 328 L317 327 L317 326 L318 325 L318 323 L319 322 L319 321 L320 320 L320 318 L321 317 L321 315 L322 314 L322 312 L323 311 L323 307 L324 306 L324 290 L323 289 Z" fill="currentColor" />
  <path d="M121 282 L121 285 L120 286 L120 294 L119 295 L119 299 L118 300 L118 304 L117 305 L117 308 L116 309 L116 311 L115 312 L115 313 L114 314 L114 316 L113 317 L113 318 L112 319 L112 320 L111 321 L111 322 L110 323 L110 324 L109 325 L109 326 L108 327 L108 328 L106 330 L106 331 L105 332 L105 333 L103 335 L103 336 L100 339 L100 340 L94 346 L94 347 L88 353 L88 354 L84 358 L84 359 L81 362 L81 363 L79 365 L79 366 L78 367 L78 368 L77 369 L77 370 L76 371 L76 372 L75 373 L75 375 L74 376 L74 377 L73 378 L73 381 L72 382 L72 385 L71 386 L71 403 L72 404 L72 408 L73 407 L73 400 L74 399 L74 397 L75 396 L75 394 L76 393 L76 392 L77 391 L77 390 L78 389 L78 388 L79 387 L79 386 L81 384 L81 383 L83 381 L83 380 L87 376 L87 375 L94 368 L95 368 L113 350 L113 349 L116 346 L116 345 L117 344 L117 343 L118 342 L118 341 L119 340 L119 339 L120 338 L120 337 L121 336 L121 334 L122 333 L122 331 L123 330 L123 327 L124 326 L124 323 L125 322 L125 313 L126 312 L126 306 L125 305 L125 296 L124 295 L124 291 L123 290 L123 287 L122 286 L122 284 L121 283 Z" fill="currentColor" />
  <path d="M355 245 L355 246 L354 247 L354 255 L353 256 L353 264 L354 265 L354 270 L355 271 L355 274 L356 275 L356 276 L357 277 L357 279 L358 280 L358 281 L359 282 L359 283 L360 284 L360 285 L362 287 L362 288 L365 291 L365 292 L373 300 L373 301 L379 307 L379 308 L381 310 L381 311 L383 313 L383 314 L384 315 L384 316 L385 317 L385 320 L386 321 L386 323 L387 324 L387 328 L388 329 L388 340 L387 341 L387 342 L387 341 L389 339 L389 337 L390 336 L390 334 L391 333 L391 325 L392 324 L392 319 L391 318 L391 313 L390 312 L390 310 L389 309 L389 307 L388 306 L388 304 L387 303 L387 302 L386 301 L386 300 L385 299 L385 298 L383 296 L383 295 L380 292 L380 291 L378 289 L378 288 L374 284 L374 283 L371 280 L371 279 L367 275 L367 274 L365 272 L365 271 L363 269 L363 268 L361 266 L361 265 L360 264 L360 263 L359 262 L359 260 L358 259 L358 257 L357 256 L357 254 L356 253 L356 250 L355 249 Z" fill="currentColor" />
  <path d="M187 201 L186 202 L184 202 L182 204 L182 215 L181 216 L181 219 L180 220 L180 222 L179 223 L179 225 L178 226 L178 227 L177 228 L177 229 L176 230 L176 231 L173 234 L173 235 L165 243 L164 243 L161 246 L160 246 L159 247 L158 247 L157 248 L155 248 L154 249 L152 249 L151 250 L146 250 L145 251 L143 251 L142 250 L135 250 L134 249 L131 249 L130 248 L129 248 L128 247 L127 247 L127 252 L128 253 L128 259 L129 260 L129 263 L130 264 L130 267 L131 268 L131 271 L132 272 L132 275 L133 276 L133 278 L134 279 L134 281 L135 282 L135 284 L136 285 L136 286 L137 287 L137 289 L138 290 L138 291 L139 292 L139 294 L140 295 L140 296 L141 297 L141 298 L142 299 L142 300 L143 301 L143 302 L144 303 L144 304 L145 305 L145 306 L146 307 L146 308 L147 309 L147 310 L148 311 L148 312 L149 313 L149 314 L150 315 L150 316 L151 317 L151 318 L153 320 L153 321 L154 322 L154 323 L156 325 L156 326 L158 328 L158 329 L160 331 L160 332 L162 334 L162 335 L163 336 L163 337 L167 341 L167 342 L176 351 L177 351 L178 352 L179 352 L180 353 L181 353 L182 354 L183 354 L184 355 L186 355 L187 356 L189 356 L190 357 L194 357 L195 358 L210 358 L211 357 L215 357 L216 356 L218 356 L219 355 L221 355 L222 354 L224 354 L225 353 L226 353 L227 352 L229 352 L231 350 L232 350 L233 349 L234 349 L235 348 L236 348 L238 346 L239 346 L240 345 L241 345 L243 343 L244 343 L246 341 L247 341 L249 339 L250 339 L252 337 L253 337 L256 334 L257 334 L259 332 L260 332 L263 329 L264 329 L268 325 L269 325 L272 322 L273 322 L288 307 L288 306 L290 304 L290 303 L291 302 L291 301 L293 299 L293 298 L294 297 L294 296 L295 295 L295 294 L296 293 L296 292 L297 291 L297 290 L298 289 L298 287 L299 286 L299 285 L300 284 L300 282 L301 281 L301 280 L302 279 L302 278 L303 277 L303 275 L304 274 L304 272 L305 271 L305 270 L306 269 L307 269 L308 268 L309 269 L310 269 L311 270 L312 270 L313 271 L320 271 L321 270 L323 270 L325 268 L326 268 L333 261 L333 260 L335 258 L335 257 L336 256 L336 255 L337 254 L337 253 L338 252 L338 251 L339 250 L339 249 L340 248 L340 247 L341 246 L341 244 L342 243 L342 241 L343 240 L343 238 L344 237 L344 233 L345 232 L345 227 L346 226 L346 222 L345 221 L345 218 L344 217 L344 216 L343 215 L343 214 L339 210 L331 210 L330 211 L329 211 L328 212 L327 212 L324 215 L324 216 L322 218 L322 219 L321 220 L321 222 L320 223 L320 224 L319 225 L319 227 L318 228 L318 229 L317 230 L317 232 L316 233 L316 234 L315 235 L315 236 L314 237 L314 238 L313 239 L313 240 L311 242 L311 243 L309 245 L309 246 L307 248 L306 248 L305 249 L303 247 L304 246 L304 239 L305 238 L305 207 L304 206 L303 206 L302 205 L298 205 L297 204 L294 204 L293 203 L288 203 L287 202 L284 202 L283 203 L282 203 L280 205 L280 206 L279 207 L279 212 L278 213 L278 217 L277 218 L277 221 L276 222 L276 224 L275 225 L275 226 L274 227 L274 228 L273 229 L273 230 L272 231 L272 232 L270 234 L270 235 L259 246 L258 246 L257 247 L256 247 L255 248 L254 248 L253 249 L252 249 L251 250 L249 250 L248 251 L243 251 L242 252 L233 252 L232 251 L228 251 L227 250 L225 250 L224 249 L222 249 L221 248 L220 248 L219 247 L218 247 L216 245 L215 245 L212 242 L211 242 L206 237 L206 236 L203 233 L203 232 L202 231 L202 230 L200 228 L200 226 L199 225 L199 223 L198 222 L198 220 L197 219 L197 214 L196 213 L196 205 L195 204 L195 203 L194 203 L193 202 L191 202 L190 201 Z" fill="currentColor" />
  <path d="M233 186 L232 187 L226 187 L225 188 L223 188 L222 189 L220 189 L219 190 L218 190 L217 191 L216 191 L214 193 L213 193 L210 196 L210 197 L209 198 L209 199 L208 200 L208 201 L207 202 L207 216 L208 217 L208 220 L209 221 L209 223 L210 224 L210 225 L211 226 L211 227 L213 229 L213 230 L220 237 L221 237 L223 239 L224 239 L225 240 L227 240 L228 241 L230 241 L231 242 L243 242 L244 241 L247 241 L248 240 L250 240 L251 239 L252 239 L254 237 L255 237 L262 230 L262 229 L263 228 L263 227 L264 226 L264 225 L265 224 L265 223 L266 222 L266 219 L267 218 L267 202 L266 201 L266 200 L265 199 L265 198 L264 197 L264 196 L258 190 L257 190 L256 189 L254 189 L253 188 L251 188 L250 187 L245 187 L244 186 Z" fill="currentColor" />
  <path d="M139 186 L138 187 L130 187 L129 188 L127 188 L126 189 L125 189 L124 190 L123 190 L122 191 L121 191 L118 194 L118 195 L116 197 L116 198 L115 199 L115 200 L114 201 L114 216 L115 217 L115 219 L116 220 L116 222 L117 223 L117 225 L118 226 L118 227 L120 229 L120 230 L127 237 L128 237 L129 238 L130 238 L131 239 L132 239 L133 240 L136 240 L137 241 L148 241 L149 240 L151 240 L152 239 L154 239 L155 238 L156 238 L158 236 L159 236 L166 229 L166 228 L167 227 L167 226 L168 225 L168 224 L169 223 L169 221 L170 220 L170 218 L171 217 L171 204 L170 203 L170 201 L169 200 L169 199 L168 198 L168 197 L162 191 L161 191 L160 190 L159 190 L158 189 L156 189 L155 188 L153 188 L152 187 L145 187 L144 186 Z" fill="currentColor" />
  <path d="M163 144 L162 145 L158 145 L157 146 L155 146 L154 147 L152 147 L151 148 L149 148 L148 149 L147 149 L146 150 L145 150 L143 152 L142 152 L139 155 L138 155 L137 156 L137 157 L135 159 L135 161 L134 162 L134 163 L133 164 L133 167 L132 168 L132 171 L131 172 L131 177 L152 177 L153 178 L156 178 L157 179 L159 179 L160 180 L162 180 L163 181 L164 181 L165 182 L166 182 L168 184 L169 184 L170 185 L171 185 L176 190 L177 190 L178 191 L179 190 L182 190 L183 189 L194 189 L195 190 L201 190 L202 189 L203 189 L206 186 L207 186 L209 184 L210 184 L212 182 L213 182 L214 181 L216 181 L217 180 L218 180 L219 179 L221 179 L222 178 L226 178 L227 177 L236 177 L237 176 L238 176 L239 177 L241 177 L242 176 L243 177 L250 177 L251 178 L255 178 L256 179 L258 179 L259 180 L261 180 L262 181 L264 181 L265 182 L267 182 L268 183 L270 183 L271 184 L274 184 L275 185 L278 185 L279 186 L281 186 L282 187 L285 187 L286 188 L288 188 L289 189 L292 189 L293 190 L295 190 L296 191 L297 191 L298 192 L301 192 L300 191 L300 190 L299 189 L299 188 L296 185 L296 184 L294 182 L294 181 L292 179 L292 178 L291 177 L291 175 L289 173 L289 172 L288 171 L288 170 L269 170 L268 169 L263 169 L262 168 L259 168 L258 167 L255 167 L254 166 L252 166 L251 165 L248 165 L247 164 L245 164 L244 163 L242 163 L241 162 L239 162 L238 161 L236 161 L235 160 L234 160 L233 159 L231 159 L230 158 L228 158 L227 157 L226 157 L225 156 L223 156 L222 155 L220 155 L219 154 L217 154 L216 153 L214 153 L213 152 L211 152 L210 151 L208 151 L207 150 L205 150 L204 149 L202 149 L201 148 L198 148 L197 147 L194 147 L193 146 L189 146 L188 145 L182 145 L181 144 Z" fill="currentColor" />
  <path d="M172 117 L171 118 L161 118 L160 119 L155 119 L154 120 L150 120 L149 121 L145 121 L144 122 L142 122 L141 123 L138 123 L137 124 L135 124 L134 125 L132 125 L131 126 L128 126 L127 127 L126 127 L125 128 L123 128 L122 129 L121 129 L120 130 L118 130 L117 131 L116 131 L115 132 L114 132 L113 133 L112 133 L111 134 L110 134 L109 135 L108 135 L106 137 L105 137 L103 139 L102 139 L101 140 L100 140 L96 144 L95 144 L90 149 L90 150 L89 151 L89 152 L87 154 L87 156 L86 157 L86 162 L87 163 L87 165 L93 171 L94 171 L95 172 L96 172 L97 173 L99 173 L97 171 L96 171 L94 169 L94 168 L93 167 L93 166 L92 165 L92 156 L94 154 L94 153 L101 146 L102 146 L104 144 L105 144 L106 143 L107 143 L109 141 L110 141 L111 140 L113 140 L114 139 L115 139 L116 138 L118 138 L119 137 L120 137 L121 136 L123 136 L124 135 L127 135 L128 134 L130 134 L131 133 L136 133 L137 132 L142 132 L143 131 L152 131 L153 130 L173 130 L174 131 L181 131 L182 132 L186 132 L187 133 L191 133 L192 134 L196 134 L197 135 L200 135 L201 136 L203 136 L204 137 L206 137 L207 138 L209 138 L210 139 L212 139 L213 140 L215 140 L216 141 L217 141 L218 142 L220 142 L221 143 L223 143 L224 144 L225 144 L226 145 L227 145 L228 146 L230 146 L231 147 L232 147 L233 148 L235 148 L236 149 L237 149 L238 150 L240 150 L241 151 L243 151 L244 152 L246 152 L247 153 L249 153 L250 154 L252 154 L253 155 L256 155 L257 156 L260 156 L261 157 L265 157 L266 158 L276 158 L277 159 L283 159 L284 158 L291 158 L292 157 L293 157 L293 156 L291 154 L290 154 L288 152 L287 152 L285 150 L284 150 L283 149 L282 149 L280 147 L279 147 L277 145 L276 145 L275 144 L274 144 L272 142 L271 142 L270 141 L269 141 L268 140 L267 140 L265 138 L264 138 L263 137 L262 137 L261 136 L260 136 L259 135 L258 135 L257 134 L255 134 L254 133 L253 133 L252 132 L251 132 L250 131 L249 131 L248 130 L246 130 L245 129 L244 129 L243 128 L241 128 L240 127 L239 127 L238 126 L235 126 L234 125 L232 125 L231 124 L229 124 L228 123 L225 123 L224 122 L221 122 L220 121 L216 121 L215 120 L212 120 L211 119 L205 119 L204 118 L197 118 L196 117 Z" fill="currentColor" />
  <path d="M219 45 L218 46 L215 46 L214 47 L212 47 L211 48 L210 48 L209 49 L207 49 L205 51 L204 51 L201 54 L200 54 L194 60 L194 61 L190 65 L190 66 L188 68 L188 69 L186 71 L186 72 L185 73 L185 74 L183 76 L183 77 L181 79 L179 77 L179 75 L180 74 L180 69 L181 68 L181 66 L182 65 L182 64 L183 63 L183 61 L184 60 L184 59 L185 58 L185 57 L187 55 L187 54 L189 52 L183 52 L182 53 L180 53 L179 54 L177 54 L176 55 L174 55 L173 56 L172 56 L171 57 L170 57 L169 58 L168 58 L167 59 L166 59 L165 60 L164 60 L162 62 L161 62 L160 63 L159 63 L158 64 L157 64 L155 66 L154 66 L152 68 L151 68 L150 69 L149 69 L147 71 L145 71 L144 72 L143 72 L142 73 L141 73 L140 74 L139 74 L138 75 L137 75 L136 76 L135 76 L134 77 L133 77 L131 79 L130 79 L127 82 L126 82 L122 86 L122 87 L120 89 L120 90 L118 92 L118 93 L117 94 L117 95 L116 96 L116 97 L115 98 L115 101 L114 102 L114 109 L113 110 L113 111 L114 112 L114 119 L115 120 L115 121 L116 121 L117 120 L118 120 L119 119 L120 119 L121 118 L123 118 L124 117 L125 117 L126 116 L128 116 L129 115 L131 115 L132 114 L135 114 L136 113 L138 113 L139 112 L141 112 L142 111 L146 111 L147 110 L150 110 L151 109 L155 109 L156 108 L162 108 L163 107 L170 107 L171 106 L197 106 L198 107 L205 107 L206 108 L212 108 L213 109 L218 109 L219 110 L221 110 L222 111 L226 111 L227 112 L230 112 L231 113 L233 113 L234 114 L236 114 L237 115 L239 115 L240 116 L243 116 L244 117 L245 117 L246 118 L248 118 L249 119 L250 119 L251 120 L253 120 L254 121 L255 121 L256 122 L257 122 L258 123 L260 123 L261 124 L262 124 L263 125 L264 125 L265 126 L266 126 L267 127 L268 127 L269 128 L270 128 L272 130 L273 130 L274 131 L275 131 L276 132 L277 132 L279 134 L280 134 L282 136 L283 136 L284 137 L285 137 L287 139 L288 139 L290 141 L291 141 L293 143 L294 143 L297 146 L298 146 L302 150 L303 150 L308 155 L309 155 L324 170 L324 171 L327 174 L327 175 L330 178 L330 179 L333 182 L333 183 L335 185 L335 186 L337 188 L337 189 L338 190 L338 191 L339 192 L339 193 L341 195 L341 196 L344 199 L345 199 L347 201 L348 201 L352 205 L352 206 L354 208 L354 209 L355 210 L355 212 L356 213 L356 215 L357 216 L357 224 L358 225 L359 224 L360 224 L361 223 L362 223 L364 221 L365 221 L370 216 L370 215 L372 213 L372 212 L373 211 L373 210 L374 209 L374 208 L375 207 L375 206 L376 205 L376 203 L377 202 L377 200 L378 199 L378 195 L379 194 L379 180 L378 179 L378 175 L377 174 L377 171 L376 170 L376 168 L375 167 L375 166 L374 165 L374 164 L373 163 L373 161 L372 160 L372 159 L371 158 L371 157 L370 156 L370 155 L368 153 L368 152 L367 151 L367 150 L366 149 L366 148 L365 147 L365 146 L364 145 L364 144 L363 143 L363 142 L362 141 L362 140 L361 139 L361 137 L360 136 L360 135 L359 134 L359 131 L358 130 L358 128 L357 127 L357 126 L356 125 L356 123 L355 122 L355 120 L354 119 L354 118 L353 117 L353 116 L352 115 L352 114 L351 113 L351 112 L348 109 L348 108 L344 104 L344 103 L341 100 L340 100 L336 96 L335 96 L332 93 L331 93 L329 91 L328 91 L327 90 L326 90 L325 89 L324 89 L323 88 L322 88 L320 86 L319 86 L318 85 L316 85 L316 86 L317 87 L317 90 L318 91 L318 95 L319 96 L319 106 L318 107 L318 111 L317 112 L316 112 L314 110 L314 108 L313 107 L313 104 L312 103 L312 101 L311 100 L311 97 L310 96 L310 94 L309 93 L309 91 L308 90 L308 89 L307 88 L307 86 L306 85 L306 84 L305 83 L305 82 L304 81 L304 80 L303 79 L303 78 L302 77 L302 76 L300 74 L300 73 L293 66 L292 66 L290 64 L289 64 L288 63 L286 63 L285 62 L284 62 L283 61 L280 61 L279 60 L274 60 L273 59 L266 59 L265 58 L262 58 L261 57 L258 57 L257 56 L255 56 L254 55 L253 55 L252 54 L250 54 L249 53 L248 53 L247 52 L246 52 L245 51 L244 51 L243 50 L241 50 L240 49 L239 49 L238 48 L236 48 L235 47 L232 47 L231 46 L228 46 L227 45 Z" fill="currentColor" />
</svg>